<?xml version="1.0" encoding="UTF-8" standalone="no"?>
<!-- Created with Inkscape (http://www.inkscape.org/) -->

<svg
   xmlns:dc="http://purl.org/dc/elements/1.1/"
   xmlns:cc="http://creativecommons.org/ns#"
   xmlns:rdf="http://www.w3.org/1999/02/22-rdf-syntax-ns#"
   xmlns:svg="http://www.w3.org/2000/svg"
   xmlns="http://www.w3.org/2000/svg"
   xmlns:sodipodi="http://sodipodi.sourceforge.net/DTD/sodipodi-0.dtd"
   xmlns:inkscape="http://www.inkscape.org/namespaces/inkscape"
   id="svg2"
   height="41.432mm"
   width="271.41mm"
   version="1.1"
   viewBox="0 0 961.67612 146.80535"
   inkscape:version="0.91 r13725"
   sodipodi:docname="inventorspaceXYZ wordmark white.svg">
  <sodipodi:namedview
     pagecolor="#ffffff"
     bordercolor="#666666"
     borderopacity="1"
     objecttolerance="10"
     gridtolerance="10"
     guidetolerance="10"
     inkscape:pageopacity="0"
     inkscape:pageshadow="2"
     inkscape:window-width="1536"
     inkscape:window-height="801"
     id="namedview88"
     showgrid="false"
     inkscape:zoom="13.552606"
     inkscape:cx="390.61538"
     inkscape:cy="83.632819"
     inkscape:window-x="-8"
     inkscape:window-y="-8"
     inkscape:window-maximized="1"
     inkscape:current-layer="g114" />
  <defs
     id="defs4">
    <marker
       id="marker7985"
       overflow="visible"
       orient="auto">
      <path
         id="path7"
         d="m5.77 0-8.65 5v-10l8.65 5z"
         fill-rule="evenodd"
         transform="scale(-.2)"
         stroke="#fff"
         stroke-width="1pt"
         fill="#fff" />
    </marker>
    <marker
       id="marker7921"
       overflow="visible"
       orient="auto">
      <path
         id="path10"
         d="m5.77 0-8.65 5v-10l8.65 5z"
         fill-rule="evenodd"
         transform="scale(-.2)"
         stroke="#fff"
         stroke-width="1pt"
         fill="#fff" />
    </marker>
    <marker
       id="marker7803"
       overflow="visible"
       orient="auto">
      <path
         id="path13"
         d="m5.77 0-8.65 5v-10l8.65 5z"
         fill-rule="evenodd"
         transform="scale(.2)"
         stroke="#fff"
         stroke-width="1pt"
         fill="#fff" />
    </marker>
    <marker
       id="marker7540"
       overflow="visible"
       orient="auto">
      <path
         id="path16"
         d="m5.77 0-8.65 5v-10l8.65 5z"
         fill-rule="evenodd"
         transform="scale(-.2)"
         stroke="#00f"
         stroke-width="1pt"
         fill="#00f" />
    </marker>
    <marker
       id="marker7488"
       overflow="visible"
       orient="auto">
      <path
         id="path19"
         d="m5.77 0-8.65 5v-10l8.65 5z"
         fill-rule="evenodd"
         transform="scale(-.2)"
         stroke="#008000"
         stroke-width="1pt"
         fill="#008000" />
    </marker>
    <marker
       id="marker7448"
       overflow="visible"
       orient="auto">
      <path
         id="path22"
         d="m5.77 0-8.65 5v-10l8.65 5z"
         fill-rule="evenodd"
         transform="scale(.2)"
         stroke="#f00"
         stroke-width="1pt"
         fill="#f00" />
    </marker>
  </defs>
  <metadata
     id="metadata24">
    <rdf:RDF>
      <cc:Work
         rdf:about="">
        <dc:format>image/svg+xml</dc:format>
        <dc:type
           rdf:resource="http://purl.org/dc/dcmitype/StillImage" />
        <dc:title />
      </cc:Work>
    </rdf:RDF>
  </metadata>
  <g
     id="g26"
     transform="translate(832.27 -518.96)">
    <g
       id="g28"
       transform="translate(-860.54 -413.03)">
      <g
         stroke="#ffffff"
         stroke-width="3"
         stroke-linecap="round"
         fill="none"
         id="g19">
        <g
           id="g30"
           transform="translate(800.24 41.748)">
          <path
             id="path32"
             d="m-620.64 924.09-32.325 64.65" />
          <path
             id="path34"
             d="m-685.29 924.09 32.325 64.65" />
        </g>
        <g
           id="g36"
           transform="translate(800.24 41.748)">
          <path
             id="path38"
             transform="scale(1,-1)"
             d="m-472.32-956.41a32.325 32.325 0 0 1 -16.162 27.994 32.325 32.325 0 0 1 -32.325 0 32.325 32.325 0 0 1 -16.162 -27.994" />
          <path
             id="path40"
             d="m-536.97 924.09v64.65" />
          <path
             id="path42"
             d="m-472.32 956.41v32.325" />
        </g>
        <g
           id="g44"
           transform="translate(800.24 41.748)">
          <path
             id="path46"
             transform="scale(1,-1)"
             d="m-552.64-956.41a32.325 32.325 0 0 1 -28.106 32.048 32.325 32.325 0 0 1 -35.443 -23.682 32.325 32.325 0 0 1 18.853 -38.231 32.325 32.325 0 0 1 40.364 13.702" />
          <path
             id="path48"
             d="m-552.64 956.41h-44.65" />
        </g>
        <g
           id="g50"
           transform="translate(800.24 41.748)">
          <path
             id="path52"
             d="m-456.64 891.76 0.00001 85.863" />
          <path
             id="path54"
             d="m-424.32 924.09h-44.65" />
          <path
             id="path56"
             d="m-439.98 987.25a11.112 11.112 0 0 1 -11.112 0 11.112 11.112 0 0 1 -5.5558 -9.623" />
        </g>
      </g>
      <g
         id="g58"
         transform="translate(800.24 41.748)">
        <path
           id="path60"
           d="m-768.97 924.09v64.65"
           stroke="#ffffff"
           stroke-linecap="round"
           stroke-width="3"
           fill="none" />
        <circle
           id="circle62"
           cy="913.41"
           cx="-768.97"
           r="3"
           fill="#ff9814" />
      </g>
      <g
         stroke="#ffffff"
         id="g38">
        <g
           id="g64"
           transform="translate(177.97 41.748)"
           stroke-linecap="round"
           stroke-width="3"
           fill="none">
          <path
             id="path66"
             transform="scale(1,-1)"
             d="m-66.371-956.41a32.325 32.325 0 0 1 -16.162 27.994 32.325 32.325 0 0 1 -32.325 0 32.325 32.325 0 0 1 -16.162 -27.994" />
          <path
             id="path68"
             d="m-131.02 924.09v64.65" />
          <path
             id="path70"
             d="m-66.371 956.41v32.325" />
        </g>
        <g
           id="g72"
           transform="translate(1365.9 -76.253)"
           stroke-linecap="round"
           stroke-width="6"
           fill="none">
          <path
             id="path74"
             d="m-778.7 1074.4 0.00007 63.942" />
          <circle
             id="circle76"
             transform="scale(-1)"
             cy="-1074.4"
             cx="746.37"
             r="32.325" />
        </g>
        <g
           id="g78"
           transform="translate(1105.6 -76.253)">
          <g
             id="g80"
             transform="translate(-487.03 118)"
             stroke="#ffffff"
             stroke-linecap="round"
             stroke-width="3"
             fill="none">
            <path
               id="path82"
               transform="scale(1,-1)"
               d="m-98.696-924.09a32.325 32.325 0 0 1 -22.857 -9.4677 32.325 32.325 0 0 1 -9.4677 -22.857" />
            <path
               id="path84"
               d="m-131.02 924.09v64.65" />
          </g>
        </g>
        <g
           id="g86"
           stroke-linecap="round"
           stroke-width="6"
           fill="none">
          <g
             id="g88"
             transform="translate(580.2 1258)">
            <path
               id="path90"
               d="m-28.599-227.54a21.28 21.214 0 0 1 -15.047 -6.2133" />
            <path
               id="path92"
               d="m-28.599-259.87a16.216 16.162 0 0 1 16.216 16.162 16.216 16.162 0 0 1 -16.216 16.162" />
            <path
               id="path94"
               d="m-28.599-259.87a16.216 16.162 0 0 1 -14.044 -8.0812 16.216 16.162 0 0 1 0 -16.162 16.216 16.162 0 0 1 14.044 -8.0812" />
            <path
               id="path96"
               transform="scale(-1)"
               d="m28.599 292.19a21.28 21.214 0 0 1 -15.047 -6.2133" />
          </g>
          <g
             id="g98"
             transform="translate(1088.5 41.748)">
            <circle
               id="circle100"
               transform="scale(1,-1)"
               cy="-956.41"
               cx="-388.64"
               r="32.325" />
            <path
               id="path102"
               d="m-356.32 956.41v32.325" />
          </g>
          <path
             id="path104"
             transform="scale(1,-1)"
             d="m810.22-982a32.325 32.325 0 0 1 -36.36 15.061 32.325 32.325 0 0 1 -23.959 -31.223 32.325 32.325 0 0 1 23.959 -31.223 32.325 32.325 0 0 1 36.36 15.061" />
          <g
             id="g106"
             transform="translate(1445.5 41.748)">
            <path
               id="path108"
               transform="scale(1,-1)"
               d="m-552.64-956.41a32.325 32.325 0 0 1 -28.106 32.048 32.325 32.325 0 0 1 -35.443 -23.682 32.325 32.325 0 0 1 18.853 -38.231 32.325 32.325 0 0 1 40.364 13.702" />
            <path
               id="path110"
               d="m-552.64 956.41h-44.65" />
          </g>
        </g>
      </g>
      <g
         id="g112"
         transform="translate(0,720)">
        <g
           id="g114"
           transform="matrix(.24472 0 0 .24472 611.92 225.68)">
          <path
             id="path116"
             d="m-753.77 140.69c-10.949 5.3128-28.024 11.571-33.491 13.825-6.7804 2.084-14.03 1.2034-20.958 1.0272 13.439-16.124 38.355-18.156 54.449-14.852z"
             fill="#ff8218" />
          <path
             id="path118"
             d="m-754.52 140.53c-18.637 9.7898-43.173 15.882-58.498 26.932-4.7604 3.9739-6.0197 8.5758-5.5493 14.513 27.318-15.701 54.098-19.457 78.092-36.358-5.0391-2.9364-8.4266-3.8654-14.045-5.0878z"
             fill="#ffc114" />
          <path
             id="path122"
             d="m-728.5 159.46 0.0463-0.0225c-11.418 7.3086-24.333 11.624-36.338 17.7-17.966 3.9682-38.061 6.5871-53.774 4.8434 12.51-7.2438 25.919-12.246 37.677-16.732 17.795-3.0722 38.155-5.9041 52.389-5.7889z"
             fill="#ff6b14" />
          <path
             id="path124"
             d="m-728.45 159.43c4.0506 3.9919 14.735 11.535 5.5476 16.144-32.316 15.276-64.744 26.641-92.431 39.978-1.2328-3.2581-2.1945-7.4134-1.9125-10.929 29.314-21.065 59.199-29.273 88.796-45.193z"
             fill="#ffd814" />
          <path
             id="path126"
             d="m-784.02 201.7c4.7862-0.53837 61.599-11.956 67.917-10.94-18.756 8.8059-38.505 15.053-57.584 23.066-13.59 2.5535-27.849 3.8484-41.644 1.735 9.5997-4.778 26.007-11.593 31.312-13.861z"
             fill="#ff6b14" />
          <path
             id="path128"
             d="m-716.06 190.72c-0.23475 4.5205-1.7055 9.3826-2.8152 13.778-24.767 14.084-49.871 23.721-72.914 36.033-4.168-3.9919-5.8841-6.4582-11.869-10.393 24.635-17.655 62.135-27.61 87.598-39.418z"
             fill="#ffd814" />
          <path
             id="path130"
             d="m-756.81 223.57c11.477-1.9374 24.073-4.2852 35.814-2.7882-12.886 6.3696-26.241 11.712-39.655 16.819-10.303 1.7024-20.664 3.3736-31.143 2.9351 11.33-6.1029 24.011-12.036 34.984-16.966z"
             fill="#ff6b14" />
          <path
             id="path132"
             d="m-721 220.78c-1.2282 5.725-2.5538 12.68-8.1306 16.056-14.685 9.5062-31.964 15.498-45.526 24.216-2.3296-4.0305-4.812-8.3432-6.8098-11.887 15.892-11.11 41.266-19.574 60.466-28.384z"
             fill="#ffc114" />
          <path
             id="path134"
             d="m-747.12 246.73c7.0932 0.72213 11.218 1.2309 18.272 2.3542l-0.015 0.0238c-5.8411 4.6964-12.211 8.5709-18.786 11.976-14.448 1.127-27.029-0.0688-27.029-0.0688 3.4842-2.6378 18.508-10.387 27.557-14.285z"
             fill="#ff6b14" />
          <path
             id="path136"
             d="m-728.86 249.11c1.6224 5.0779 2.8139 8.8186 3.992 14.823l-41.888 12.232c11.286-12.038 24.597-19.413 37.896-27.055z"
             fill="#ff9814" />
          <path
             id="path138"
             fill="#ffffff"
             d="m-764.91 281.93 41.041-11.915c2.1655 17.875-35.457 26.884-41.041 11.915z" />
          <path
             id="path140"
             fill="#ff9814"
             transform="translate(-7.1614 -23.444)"
             d="m-767.15 28.955v6.5703a203.08 203.08 0 0 0 -0.0234 0 27.385 27.385 0 0 1 -27.365 26.943 27.385 27.385 0 0 1 -24.99 -16.275 203.08 203.08 0 0 0 -0.041 0.02344l-2.6152-6.3145-23.936 9.9141 2.5879 6.2461a203.08 203.08 0 0 0 -0.0332 0.02344 27.385 27.385 0 0 1 -15.033 35.188 27.385 27.385 0 0 1 -29.34 -5.4961 203.08 203.08 0 0 0 -0.0371 0.0293l-4.8027-4.8047-18.318 18.322 4.7226 4.7207a203.08 203.08 0 0 0 -0.0234 0.0273 27.385 27.385 0 0 1 -0.36719 38.324 27.385 27.385 0 0 1 -29.422 6.0723 203.08 203.08 0 0 0 -0.0234 0.0332l-6.0762-2.5195-9.9141 23.936 5.9805 2.4766a203.08 203.08 0 0 0 0 0.0234 27.385 27.385 0 0 1 14.516 35.631 27.385 27.385 0 0 1 -24.934 16.875 203.08 203.08 0 0 0 0 0.0332h-6.498v25.908h6.5723a203.08 203.08 0 0 0 0 0.0234 27.385 27.385 0 0 1 26.943 27.361 27.385 27.385 0 0 1 -16.256 24.984 203.08 203.08 0 0 0 0.0234 0.043l-6.3242 2.6191 9.9141 23.936 6.2598-2.5918a203.08 203.08 0 0 0 0.0234 0.0274 27.385 27.385 0 0 1 35.178 15.033 27.385 27.385 0 0 1 -5.4824 29.336 203.08 203.08 0 0 0 0.0234 0.0312l-4.8203 4.8223 18.316 18.322 4.748-4.75a203.08 203.08 0 0 0 0.0273 0.0234 27.385 27.385 0 0 1 38.297 0.38476 27.385 27.385 0 0 1 6.0898 29.385 203.08 203.08 0 0 0 0.0293 0.0234l-2.5332 6.1133 23.936 9.9141 2.4922-6.0156a203.08 203.08 0 0 0 0.0234 0 27.385 27.385 0 0 1 35.615 -14.484 27.385 27.385 0 0 1 16.879 25.131 203.08 203.08 0 0 0 0.0234 0v6.3086h25.906v-6.5742a203.08 203.08 0 0 0 0.0273 0 27.385 27.385 0 0 1 27.365 -26.949 27.385 27.385 0 0 1 24.984 16.262 203.08 203.08 0 0 0 0.0371 -0.0254l2.6192 6.3301 23.936-9.9141-2.5918-6.2656a203.08 203.08 0 0 0 0.0332 -0.0234 27.385 27.385 0 0 1 15.039 -35.172 27.385 27.385 0 0 1 29.324 5.4766 203.08 203.08 0 0 0 0.0273 -0.0293l4.8281 4.832 18.316-18.322-4.7441-4.748a203.08 203.08 0 0 0 0.0234 -0.0274 27.385 27.385 0 0 1 0.38867 -38.297 27.385 27.385 0 0 1 29.385 -6.0859 203.08 203.08 0 0 0 0.0234 -0.0273l6.1035 2.5273 9.9199-23.936-6.0137-2.4922a203.08 203.08 0 0 0 0 -0.0234 27.385 27.385 0 0 1 -14.484 -35.617 27.385 27.385 0 0 1 25.131 -16.873 203.08 203.08 0 0 0 0 -0.0234h6.3008v-25.91h-6.5664a203.08 203.08 0 0 0 0 -0.0273 27.385 27.385 0 0 1 -26.947 -27.361 27.385 27.385 0 0 1 16.26 -24.988 203.08 203.08 0 0 0 -0.0234 -0.0332l6.3242-2.6191-9.9141-23.936-6.2559 2.5918a203.08 203.08 0 0 0 -0.0234 -0.0391 27.385 27.385 0 0 1 -35.172 -15.033 27.385 27.385 0 0 1 5.4766 -29.322 203.08 203.08 0 0 0 -0.0332 -0.0332l4.8223-4.8203-18.316-18.322-4.7441 4.7441a203.08 203.08 0 0 0 -0.0234 -0.02344 27.385 27.385 0 0 1 -38.297 -0.38867 27.385 27.385 0 0 1 -6.0898 -29.385 203.08 203.08 0 0 0 -0.0332 -0.02344l2.5332-6.1133-23.936-9.9141-2.4922 6.0176a203.08 203.08 0 0 0 -0.0234 0 27.385 27.385 0 0 1 -35.617 14.479 27.385 27.385 0 0 1 -16.873 -25.125 203.08 203.08 0 0 0 -0.0293 0v-6.3066h-25.902zm12.955 77.594a132.09 131.35 0 0 1 132.09 131.35 132.09 131.35 0 0 1 -132.09 131.35 132.09 131.35 0 0 1 -132.09 -131.35 132.09 131.35 0 0 1 132.09 -131.35z" />
        </g>
        <circle
           id="circle142"
           stroke-width="3"
           stroke-linecap="round"
           transform="scale(-1)"
           stroke="#ffffff"
           cy="-278.16"
           cx="-425.6"
           r="32.325"
           fill="none" />
      </g>
      <g
         id="g144"
         transform="translate(342.53 -71.119)"
         stroke="#fff"
         stroke-linecap="round"
         stroke-width="6"
         fill="none">
        <path
           id="path146"
           marker-start="url(#marker7985)"
           d="m638.99 1117.6h-64.65" />
        <path
           id="path148"
           marker-start="url(#marker7921)"
           d="m574.34 1053v64.65" />
        <path
           id="path150"
           marker-end="url(#marker7803)"
           d="m574.34 1117.6-35.423 27.181" />
      </g>
      <g
         id="g152"
         stroke-width="6"
         stroke-linecap="round"
         transform="translate(342.53 -71.119)"
         fill="none">
        <path
           id="path154"
           opacity=".75"
           marker-start="url(#marker7540)"
           stroke="#00f"
           d="m638.99 1117.6h-64.65" />
        <path
           id="path156"
           opacity=".75"
           marker-start="url(#marker7488)"
           stroke="#008000"
           d="m574.34 1053v64.65" />
        <path
           id="path158"
           opacity=".75"
           stroke="#f00"
           marker-end="url(#marker7448)"
           d="m574.34 1117.6-35.423 27.181" />
      </g>
    </g>
  </g>
</svg>
