<?xml version="1.0" encoding="UTF-8" standalone="no"?>
<!-- Created with Inkscape (http://www.inkscape.org/) -->
<svg id="svg2" xmlns:rdf="http://www.w3.org/1999/02/22-rdf-syntax-ns#" xmlns="http://www.w3.org/2000/svg" height="40.741" viewBox="0 0 29.108012 40.740981" width="29.108" version="1.1" xmlns:cc="http://creativecommons.org/ns#" xmlns:dc="http://purl.org/dc/elements/1.1/">
 <metadata id="metadata24">
  <rdf:RDF>
   <cc:Work rdf:about="">
    <dc:format>image/svg+xml</dc:format>
    <dc:type rdf:resource="http://purl.org/dc/dcmitype/StillImage"/>
    <dc:title/>
   </cc:Work>
  </rdf:RDF>
 </metadata>
 <g id="g26" transform="translate(450.96 -564.75)">
  <g id="g28" transform="translate(-860.54,-413.03)">
   <g id="g112" transform="translate(0,720)">
    <g id="g114" transform="matrix(.24472 0 0 .24472 611.92 225.68)">
     <path id="path116" fill="#ff8218" d="m-753.77 140.69c-10.949 5.3128-28.024 11.571-33.491 13.825-6.7804 2.084-14.03 1.2034-20.958 1.0272 13.439-16.124 38.355-18.156 54.449-14.852z"/>
     <path id="path118" fill="#ffc114" d="m-754.52 140.53c-18.637 9.7898-43.173 15.882-58.498 26.932-4.7604 3.9739-6.0197 8.5758-5.5493 14.513 27.318-15.701 54.098-19.457 78.092-36.358-5.0391-2.9364-8.4266-3.8654-14.045-5.0878z"/>
     <path id="path122" fill="#ff6b14" d="m-728.5 159.46 0.0463-0.0225c-11.418 7.3086-24.333 11.624-36.338 17.7-17.966 3.9682-38.061 6.5871-53.774 4.8434 12.51-7.2438 25.919-12.246 37.677-16.732 17.795-3.0722 38.155-5.9041 52.389-5.7889z"/>
     <path id="path124" fill="#ffd814" d="m-728.45 159.43c4.0506 3.9919 14.735 11.535 5.5476 16.144-32.316 15.276-64.744 26.641-92.431 39.978-1.2328-3.2581-2.1945-7.4134-1.9125-10.929 29.314-21.065 59.199-29.273 88.796-45.193z"/>
     <path id="path126" fill="#ff6b14" d="m-784.02 201.7c4.7862-0.53837 61.599-11.956 67.917-10.94-18.756 8.8059-38.505 15.053-57.584 23.066-13.59 2.5535-27.849 3.8484-41.644 1.735 9.5997-4.778 26.007-11.593 31.312-13.861z"/>
     <path id="path128" fill="#ffd814" d="m-716.06 190.72c-0.23475 4.5205-1.7055 9.3826-2.8152 13.778-24.767 14.084-49.871 23.721-72.914 36.033-4.168-3.9919-5.8841-6.4582-11.869-10.393 24.635-17.655 62.135-27.61 87.598-39.418z"/>
     <path id="path130" fill="#ff6b14" d="m-756.81 223.57c11.477-1.9374 24.073-4.2852 35.814-2.7882-12.886 6.3696-26.241 11.712-39.655 16.819-10.303 1.7024-20.664 3.3736-31.143 2.9351 11.33-6.1029 24.011-12.036 34.984-16.966z"/>
     <path id="path132" fill="#ffc114" d="m-721 220.78c-1.2282 5.725-2.5538 12.68-8.1306 16.056-14.685 9.5062-31.964 15.498-45.526 24.216-2.3296-4.0305-4.812-8.3432-6.8098-11.887 15.892-11.11 41.266-19.574 60.466-28.384z"/>
     <path id="path134" fill="#ff6b14" d="m-747.12 246.73c7.0932 0.72213 11.218 1.2309 18.272 2.3542l-0.015 0.0238c-5.8411 4.6964-12.211 8.5709-18.786 11.976-14.448 1.127-27.029-0.0688-27.029-0.0688 3.4842-2.6378 18.508-10.387 27.557-14.285z"/>
     <path id="path136" fill="#ff9814" d="m-728.86 249.11c1.6224 5.0779 2.8139 8.8186 3.992 14.823l-41.888 12.232c11.286-12.038 24.597-19.413 37.896-27.055z"/>
     <path id="path138" fill="#ffffff" d="m-764.91 281.93 41.041-11.915c2.1655 17.875-35.457 26.884-41.041 11.915z"/>
    </g>
   </g>
  </g>
 </g>
</svg>
